<mxfile host="app.diagrams.net" agent="Mozilla/5.0 (Windows NT 10.0; Win64; x64) AppleWebKit/537.36 (KHTML, like Gecko) Chrome/120.0.0.0 Safari/537.36" version="24.7.17">
  <diagram name="第 1 页" id="hJlpT_VPzm526xn45Prw">
    <mxGraphModel dx="1050" dy="541" grid="1" gridSize="10" guides="1" tooltips="1" connect="1" arrows="1" fold="1" page="1" pageScale="1" pageWidth="827" pageHeight="1169" math="0" shadow="0">
      <root>
        <mxCell id="0" />
        <mxCell id="1" parent="0" />
        <mxCell id="E0J5Uynvx1gR5yxRLXG_-15" style="edgeStyle=orthogonalEdgeStyle;rounded=0;orthogonalLoop=1;jettySize=auto;html=1;entryX=0;entryY=0.5;entryDx=0;entryDy=0;" edge="1" parent="1" source="E0J5Uynvx1gR5yxRLXG_-1" target="E0J5Uynvx1gR5yxRLXG_-3">
          <mxGeometry relative="1" as="geometry" />
        </mxCell>
        <mxCell id="E0J5Uynvx1gR5yxRLXG_-1" value="" style="rounded=1;whiteSpace=wrap;html=1;fillColor=#dae8fc;strokeColor=#6c8ebf;" vertex="1" parent="1">
          <mxGeometry x="10" y="250" width="120" height="60" as="geometry" />
        </mxCell>
        <mxCell id="E0J5Uynvx1gR5yxRLXG_-14" style="edgeStyle=orthogonalEdgeStyle;rounded=0;orthogonalLoop=1;jettySize=auto;html=1;entryX=1;entryY=0.5;entryDx=0;entryDy=0;" edge="1" parent="1" source="E0J5Uynvx1gR5yxRLXG_-2" target="E0J5Uynvx1gR5yxRLXG_-3">
          <mxGeometry relative="1" as="geometry" />
        </mxCell>
        <mxCell id="E0J5Uynvx1gR5yxRLXG_-2" value="" style="rounded=1;whiteSpace=wrap;html=1;" vertex="1" parent="1">
          <mxGeometry x="220" y="250" width="120" height="60" as="geometry" />
        </mxCell>
        <mxCell id="E0J5Uynvx1gR5yxRLXG_-3" value="产品基础信息" style="rounded=1;whiteSpace=wrap;html=1;fillColor=#dae8fc;strokeColor=#6c8ebf;" vertex="1" parent="1">
          <mxGeometry x="110" y="350" width="120" height="60" as="geometry" />
        </mxCell>
        <mxCell id="E0J5Uynvx1gR5yxRLXG_-10" style="edgeStyle=orthogonalEdgeStyle;rounded=0;orthogonalLoop=1;jettySize=auto;html=1;entryX=0.5;entryY=1;entryDx=0;entryDy=0;" edge="1" parent="1" source="E0J5Uynvx1gR5yxRLXG_-4" target="E0J5Uynvx1gR5yxRLXG_-3">
          <mxGeometry relative="1" as="geometry" />
        </mxCell>
        <mxCell id="E0J5Uynvx1gR5yxRLXG_-4" value="" style="rounded=1;whiteSpace=wrap;html=1;" vertex="1" parent="1">
          <mxGeometry x="110" y="470" width="120" height="60" as="geometry" />
        </mxCell>
      </root>
    </mxGraphModel>
  </diagram>
</mxfile>
